<svg width="32" height="32" viewBox="0 0 32 32" fill="none" xmlns="http://www.w3.org/2000/svg">
<rect width="32" height="32" rx="16" fill="#6b26d9"/>
<path d="M28 13.3043C28 13.9094 27.8241 14.501 27.4944 15.0041C27.1648 15.5072 26.6962 15.8994 26.1481 16.1309C25.5999 16.3625 24.9967 16.4231 24.4147 16.305C23.8328 16.187 23.2982 15.8956 22.8787 15.4677C22.4591 15.0398 22.1734 14.4947 22.0576 13.9012C21.9419 13.3077 22.0013 12.6926 22.2284 12.1335C22.4554 11.5745 22.8399 11.0966 23.3333 10.7605C23.8266 10.4243 24.4067 10.2448 25 10.2448C25.7956 10.2448 26.5587 10.5672 27.1213 11.1409C27.6839 11.7147 28 12.4929 28 13.3043ZM10 13.3043C10 12.6992 9.82405 12.1077 9.49441 11.6046C9.16477 11.1014 8.69623 10.7093 8.14805 10.4777C7.59987 10.2462 6.99667 10.1856 6.41473 10.3036C5.83279 10.4217 5.29824 10.7131 4.87868 11.1409C4.45912 11.5688 4.1734 12.114 4.05765 12.7074C3.94189 13.3009 4.0013 13.9161 4.22836 14.4751C4.45543 15.0342 4.83994 15.512 5.33329 15.8482C5.82664 16.1844 6.40666 16.3638 7 16.3638C7.79565 16.3638 8.55871 16.0415 9.12132 15.4677C9.68393 14.8939 10 14.1158 10 13.3043ZM12.1429 11.119C12.7362 11.119 13.3162 10.9395 13.8096 10.6034C14.3029 10.2672 14.6874 9.78935 14.9145 9.2303C15.1416 8.67126 15.201 8.05609 15.0852 7.46261C14.9695 6.86913 14.6837 6.32398 14.2642 5.8961C13.8446 5.46823 13.3101 5.17684 12.7281 5.05879C12.1462 4.94074 11.543 5.00133 10.9948 5.23289C10.4466 5.46446 9.97809 5.8566 9.64845 6.35973C9.3188 6.86286 9.14286 7.45438 9.14286 8.05949C9.14286 8.87092 9.45893 9.64911 10.0215 10.2229C10.5841 10.7966 11.3472 11.119 12.1429 11.119ZM19.8571 11.119C20.4505 11.119 21.0305 10.9395 21.5239 10.6034C22.0172 10.2672 22.4017 9.78935 22.6288 9.2303C22.8558 8.67126 22.9153 8.05609 22.7995 7.46261C22.6837 6.86913 22.398 6.32398 21.9785 5.8961C21.5589 5.46823 21.0244 5.17684 20.4424 5.05879C19.8605 4.94074 19.2573 5.00133 18.7091 5.23289C18.1609 5.46446 17.6924 5.8566 17.3627 6.35973C17.0331 6.86286 16.8571 7.45438 16.8571 8.05949C16.8571 8.87092 17.1732 9.64911 17.7358 10.2229C18.2984 10.7966 19.0615 11.119 19.8571 11.119ZM22.3343 17.769C21.8989 17.524 21.5152 17.1939 21.205 16.7976C20.8949 16.4012 20.6644 15.9464 20.5268 15.4591C20.2418 14.4596 19.6464 13.5814 18.8301 12.9565C18.0138 12.3316 17.0207 11.9937 16 11.9937C14.9793 11.9937 13.9862 12.3316 13.1699 12.9565C12.3536 13.5814 11.7582 14.4596 11.4732 15.4591C11.1979 16.4396 10.5525 17.2687 9.67857 17.7646C8.8402 18.2273 8.177 18.9617 7.79385 19.8519C7.41071 20.742 7.3295 21.7371 7.56306 22.6796C7.79663 23.6221 8.33164 24.4583 9.08347 25.0559C9.83531 25.6535 10.7611 25.9785 11.7143 25.9793C12.2855 25.981 12.8512 25.8647 13.3771 25.6373C15.054 24.9321 16.9364 24.9321 18.6132 25.6373C19.6289 26.0878 20.7761 26.1198 21.8144 25.7266C22.8527 25.3334 23.7014 24.5455 24.1826 23.5282C24.6638 22.5108 24.7401 21.343 24.3955 20.2695C24.0509 19.1961 23.3122 18.3003 22.3343 17.7701V17.769Z" fill="#F6F7FD"/>
</svg>
